# xmcd
# 
# Track frame offsets:
#     150
#     23187
#     41955
#     56050
#     79347
#     96065
#     121465
#     141585
#     155900
#     174567
#     195690
#     211492
#     223692
# 
# Disc length: 3689
# 
# Revision: 3
# Processed by: cddbd v1.5.2PL0 Copyright (c) Steve Scherf et al.
# Submitted via: BonkEnc v1.0.6
# 
DISCID=cd0e670d
DTITLE=Various Artist - The Sound Of Silence
DYEAR=1995
DGENRE=Instrumental
TTITLE0=Santana Brothers - Luz Amor Y Vida
TTITLE1=The James Taylor Quartet - Indian Summer
TTITLE2=The Style Council - Me Ship Came In!
TTITLE3=Ronny Jordan - So What
TTITLE4=Dave Pike Set - Mathar
TTITLE5=Terminal - Poem Without Words
TTITLE6=United Future Organization - Mistress Of Dance
TTITLE7=Rene Aubry - Apres La Pluie II
TTITLE8=The Love Unlimited Orchestra - Love's Theme
TTITLE9=Giorgio Moroder - (Theme From) Midnight Express
TTITLE10=Philip Glass - (Theme From) Kouaanisqatsi
TTITLE11=Balanescu Quartet - Stanger Than Paradise
TTITLE12=Michael Nyman - The Piano Concert
EXTD=
EXTT0=
EXTT1=
EXTT2=
EXTT3=
EXTT4=
EXTT5=
EXTT6=
EXTT7=
EXTT8=
EXTT9=
EXTT10=
EXTT11=
EXTT12=
PLAYORDER=
